<?xml version="1.0" ?><!-- Uploaded to: SVG Repo, www.svgrepo.com, Generator: SVG Repo Mixer Tools -->
<svg width="800px" height="800px" viewBox="0 0 200 200" data-name="Layer 1" id="Layer_1" xmlns="http://www.w3.org/2000/svg"><defs><style>.cls-1{fill:#ffffff;}.cls-2{fill:#ffc861;}.cls-3{fill:none;stroke:#2f4360;stroke-linecap:round;stroke-linejoin:round;stroke-width:6px;}.cls-4{fill:#2f4360;}</style></defs><title/><polygon class="cls-1" points="181.21 189.82 18.8 189.82 100 6.5 105.5 14.5 177.62 181.32 181.21 189.82"/><polygon class="cls-2" points="174.24 180.32 32.42 180.32 103.33 12.38 174.24 180.32"/><polygon class="cls-3" points="100 6.5 181.2 189.82 18.8 189.82 100 6.5"/><polygon class="cls-4" points="123.14 54.43 75.07 54.43 66.18 75.48 132.03 75.48 123.14 54.43"/><polygon class="cls-4" points="141.21 95.09 58.79 95.09 49.9 116.14 150.1 116.14 141.21 95.09"/><polygon class="cls-4" points="158.37 135.76 41.63 135.76 32.74 156.81 167.26 156.81 158.37 135.76"/><path class="cls-1" d="M188.67,186.83A6.69,6.69,0,0,1,182,193.5H18a6.67,6.67,0,0,1,0-13.33H182A6.69,6.69,0,0,1,188.67,186.83Z"/><path class="cls-2" d="M188.67,186.83A6.69,6.69,0,0,1,182,193.5H29.34a6.67,6.67,0,0,1,0-13.33H182A6.69,6.69,0,0,1,188.67,186.83Z"/><rect class="cls-3" height="13.33" rx="6.67" ry="6.67" width="177.33" x="11.33" y="180.17"/></svg>