<?xml version="1.0" ?><!-- Uploaded to: SVG Repo, www.svgrepo.com, Generator: SVG Repo Mixer Tools -->
<svg width="800px" height="800px" viewBox="0 0 200 200" data-name="Layer 1" id="Layer_1" xmlns="http://www.w3.org/2000/svg"><defs><style>.cls-1,.cls-4{fill:none;}.cls-2{fill:#ffffff;}.cls-3{fill:#ffc861;}.cls-4{stroke:#2f4360;stroke-linecap:round;stroke-linejoin:round;stroke-width:6px;}</style></defs><title/><rect class="cls-1" height="136" width="188" x="6" y="29"/><rect class="cls-2" height="40" width="94" x="5.67" y="39.06"/><path class="cls-3" d="M99.67,39.06V71.81h-83a4,4,0,0,1-4-4V39.06h87Z"/><rect class="cls-4" height="40" rx="4.92" ry="4.92" width="94" x="5.67" y="39.06"/><rect class="cls-2" height="40" width="94" x="52.67" y="80.03"/><path class="cls-3" d="M146.67,80v32.75h-83a4,4,0,0,1-4-4V80h87Z"/><rect class="cls-4" height="40" rx="4.92" ry="4.92" width="94" x="52.67" y="80.03"/><rect class="cls-2" height="40" width="94" x="99.67" y="39.06"/><path class="cls-3" d="M193.67,39.06V71.81h-83a4,4,0,0,1-4-4V39.06h87Z"/><rect class="cls-4" height="40" rx="4.92" ry="4.92" width="94" x="99.67" y="39.06"/><rect class="cls-2" height="40" width="47" x="5.67" y="80"/><rect class="cls-3" height="32.75" width="47" x="5.67" y="80"/><path class="cls-4" d="M5.67,84.91v30.17A4.92,4.92,0,0,0,10.59,120H52.67V80H10.59A4.91,4.91,0,0,0,5.67,84.91Z"/><rect class="cls-2" height="40" width="47" x="147.33" y="80"/><rect class="cls-3" height="32.75" width="47" x="147.33" y="80"/><path class="cls-4" d="M194.33,84.91v30.17a4.92,4.92,0,0,1-4.92,4.92H147.33V80h42.08A4.91,4.91,0,0,1,194.33,84.91Z"/><rect class="cls-2" height="40" width="94" x="5.67" y="120.94"/><path class="cls-3" d="M99.67,120.94v32.75h-83a4,4,0,0,1-4-4V120.94h87Z"/><rect class="cls-4" height="40" rx="4.92" ry="4.92" width="94" x="5.67" y="120.94"/><rect class="cls-2" height="40" width="94" x="99.67" y="120.94"/><path class="cls-3" d="M193.67,120.94v32.75h-83a4,4,0,0,1-4-4V120.94h87Z"/><rect class="cls-4" height="40" rx="4.92" ry="4.92" width="94" x="99.67" y="120.94"/><rect class="cls-1" height="136" width="195" x="2.5" y="29"/></svg>