<?xml version="1.0" ?><!-- Uploaded to: SVG Repo, www.svgrepo.com, Generator: SVG Repo Mixer Tools -->
<svg width="800px" height="800px" viewBox="0 0 64 64" data-name="Layer 1" id="Layer_1" xmlns="http://www.w3.org/2000/svg"><defs><style>.cls-1{fill:#838bc5;}.cls-2{fill:#65c8d0;}.cls-3{fill:#8f6c56;}.cls-4{fill:#ba9bc9;}.cls-5{fill:#f4ecce;}</style></defs><polyline class="cls-1" points="36 52 50 62 14 62 28 52"/><polygon class="cls-1" points="57 51 43 51 43 15 56 19 57 51"/><polygon class="cls-1" points="9 51 23 51 23 15 10 19 9 51"/><polyline class="cls-1" points="25 11 25 1 41 1 41 11"/><polyline class="cls-2" points="31 11 31 7 35 7 35 11"/><polyline class="cls-3" points="23 51 23 11 43 11 43 51"/><polyline class="cls-2" points="30 51 30 41 36 41 36 51"/><polyline class="cls-2" points="47 51 47 41 53 41 53 51"/><polyline class="cls-2" points="13 51 13 41 19 41 19 51"/><rect class="cls-4" height="2" width="60" x="3" y="50"/><rect class="cls-5" height="4" width="4" x="27" y="15"/><rect class="cls-5" height="4" width="4" x="35" y="15"/><rect class="cls-5" height="4" width="4" x="27" y="23"/><rect class="cls-5" height="4" width="4" x="35" y="23"/><rect class="cls-5" height="4" width="4" x="27" y="31"/><rect class="cls-5" height="4" width="4" x="14" y="23"/><rect class="cls-5" height="4" width="4" x="14" y="31"/><rect class="cls-5" height="4" width="4" x="48" y="23"/><rect class="cls-5" height="4" width="4" x="48" y="31"/><rect class="cls-5" height="4" width="4" x="35" y="31"/><rect class="cls-5" height="2" width="6" x="29" y="54"/><rect class="cls-5" height="2" width="12" x="26" y="58"/></svg>